<?xml version="1.0" encoding="UTF-8"?>
<svg version="1.1" viewBox="0 0 1600 1600" width="1280" height="1280" xmlns="http://www.w3.org/2000/svg">
<path transform="translate(926,560)" d="m0 0c0.33 40.3 0.66 80.5 1 122 9.24-3.96 18.5-7.92 28-12 21.1-7.03 41.7-9.68 62.2 0.25 16.1 8.31 25.3 23.4 30.9 40.3 4.37 15.1 5.12 30.4 5.04 46.1-5.66e-4 1.69-2.44e-4 3.37 8.85e-4 5.06 5.67e-4 4.52-0.0111 9.04-0.0251 13.6-0.0126 4.75-0.0137 9.49-0.0161 14.2-0.00618 8.96-0.0226 17.9-0.0427 26.9-0.0267 12.1-0.0374 24.3-0.049 36.4-0.0187 19.1-0.0586 38.1-0.095 57.2h-81c-0.049-11.6-0.098-23.2-0.148-35.2-0.0354-7.36-0.0713-14.7-0.109-22.1-0.0603-11.7-0.119-23.4-0.164-35-0.0331-8.51-0.073-17-0.121-25.5-0.0251-4.5-0.0469-9-0.0606-13.5-0.0129-4.25-0.0351-8.49-0.064-12.7-0.00898-1.55-0.0147-3.1-0.0168-4.65 0.586-18.2 0.586-18.2-5.57-34.7-10-8.93-28.2-6.55-39.7-6.55v190h-81v-337c24.2-4.62 24.2-4.62 34.9-6.36 1.18-0.194 2.36-0.388 3.57-0.588 2.44-0.401 4.89-0.801 7.33-1.2 3.74-0.611 7.49-1.23 11.2-1.85 2.39-0.392 4.79-0.784 7.18-1.18 1.67-0.276 1.67-0.276 3.37-0.559 1.03-0.167 2.07-0.335 3.13-0.507 0.903-0.148 1.81-0.296 2.74-0.448 2.55-0.315 2.55-0.315 7.55-0.315z"/>
<path transform="translate(223,611)" d="m0 0h89c3.07 11.1 6.08 22.1 8.76 33.2 0.344 1.42 0.688 2.84 1.03 4.26 0.733 3.02 1.46 6.04 2.19 9.06 1.17 4.83 2.34 9.67 3.51 14.5 1.24 5.1 2.47 10.2 3.71 15.3 2.93 12.1 5.87 24.2 8.82 36.3 0.414 1.7 0.828 3.39 1.24 5.09 0.616 2.52 1.23 5.05 1.85 7.57 6.35 26 12.7 52.1 18.9 78.2 0.204 0.861 0.408 1.72 0.618 2.61 0.371 1.57 0.741 3.13 1.11 4.7 0.868 3.72 0.868 3.72 2.31 7.25 0.236-0.891 0.471-1.78 0.714-2.7 11.7-44.3 23.5-88.6 35.4-133 2.79-10.3 5.56-20.7 8.33-31 1.26-4.72 2.53-9.44 3.79-14.2 1.01-3.79 2.03-7.58 3.04-11.4 0.935-3.51 1.87-7.01 2.81-10.5 0.511-1.91 1.02-3.82 1.53-5.73 0.303-1.13 0.606-2.26 0.918-3.42 0.395-1.48 0.395-1.48 0.798-2.99 0.682-2.21 0.682-2.21 1.68-3.21 1.9-0.0939 3.81-0.117 5.71-0.114 1.22 7.55e-5 2.44 1.51e-4 3.7 2.29e-4 1.34 0.00511 2.69 0.0103 4.03 0.0156 1.37 0.00186 2.73 0.00329 4.1 0.00429 3.6 0.00382 7.2 0.0137 10.8 0.0247 3.67 0.0102 7.35 0.0148 11 0.0198 7.21 0.0107 14.4 0.0278 21.6 0.0488-1.37 6.5-3.05 12.8-4.99 19.2-0.297 0.982-0.595 1.96-0.901 2.98-0.991 3.27-1.99 6.54-2.98 9.81-0.716 2.36-1.43 4.72-2.15 7.08-1.53 5.05-3.06 10.1-4.6 15.1-2.35 7.74-4.7 15.5-7.04 23.2-9.6 31.7-19.2 63.4-28.9 95.1-5.39 17.8-10.8 35.5-16.2 53.3-0.227 0.751-0.455 1.5-0.689 2.28-2.15 7.09-4.3 14.2-6.44 21.3-0.586 1.94-1.17 3.87-1.76 5.81-0.694 2.29-1.39 4.59-2.08 6.88-3.74 12.3-7.55 24.7-11.3 37h-90c-11.5-40.2-11.5-40.2-15.6-54.9-0.477-1.72-0.954-3.44-1.43-5.16-1-3.62-2.01-7.23-3.01-10.9-1.61-5.81-3.22-11.6-4.83-17.4-1.69-6.1-3.39-12.2-5.08-18.3-3.82-13.8-7.64-27.5-11.5-41.3-0.259-0.933-0.519-1.87-0.786-2.83-0.523-1.88-1.05-3.76-1.57-5.64-0.387-1.39-0.387-1.39-0.782-2.81-0.257-0.926-0.515-1.85-0.78-2.81-4.38-15.7-8.75-31.5-13.1-47.2-1.08-3.89-2.16-7.78-3.24-11.7-3.02-10.9-6.05-21.8-9.07-32.7-1.29-4.66-2.59-9.32-3.88-14-1.2-4.31-2.39-8.61-3.58-12.9-0.438-1.58-0.876-3.16-1.32-4.74-0.596-2.14-1.19-4.29-1.78-6.43-0.333-1.2-0.666-2.4-1.01-3.64-0.705-2.67-0.705-2.67-0.705-3.67z"/>
<path transform="translate(1260 680)" d="m0 0c12.6 11.9 17.5 26.6 18.2 43.7 0.0329 2.05 0.0374 4.1 0.029 6.16 8.54e-4 0.775 0.00171 1.55 0.00259 2.35 0.00163 2.57-0.00383 5.14-0.00932 7.71-2.82e-4 1.85-1.23e-4 3.71 4.43e-4 5.56 2.86e-4 5.01-0.00558 10-0.0126 15-0.00627 5.25-0.00684 10.5-0.00803 15.7-0.0031 9.92-0.0113 19.8-0.0213 29.8-0.0112 11.3-0.0167 22.6-0.0217 33.9-0.0104 23.2-0.0288 46.5-0.0503 69.7h-76v-13c-1.92 0.904-3.83 1.81-5.81 2.74-1.89 0.885-3.77 1.77-5.66 2.65-1.3 0.608-2.59 1.22-3.89 1.83-19.2 9.07-37.5 13.4-58.4 6.97-17.4-6.4-29.3-19.9-37.2-36.2-9.46-22-9.46-46.5-1.27-69 6.71-16 16.1-29.1 31.3-38 1.1-0.666 2.19-1.33 3.32-2.02 23-13.4 50.7-14 76.7-16-0.0694-4.27-0.158-8.54-0.262-12.8-0.033-1.45-0.0611-2.9-0.084-4.35 0.149-12.8 0.149-12.8-5.42-23.9-9.98-7-20.5-7.2-32.2-5.17-18.1 3.5-36 9.25-53 16.5-2.03 0.719-2.03 0.719-5.03 0.719-1.52-3.05-1.38-6.28-1.56-9.62-0.0425-0.748-0.0849-1.5-0.129-2.27-0.401-7.71-0.384-15.4-0.309-23.1 11.4-4.55 22.9-8.08 34.8-11.1 1.25-0.324 1.25-0.324 2.52-0.655 12.2-3.15 24.3-6.2 36.7-8.22 1.27-0.222 2.55-0.443 3.86-0.672 26.7-4.03 57.4-3.1 79 15.1zm-86.6 120c-7.95 8.25-10.4 19.6-10.5 30.7-0.0206 0.813-0.0412 1.63-0.0625 2.46-0.0431 6.78 1 13 4.89 18.7 10.1 9.51 19.1 8.7 33.4 8.7v-72c-9.69 0-20.7 5.41-27.8 11.5z"/>
<path transform="translate(796,676)" d="m0 0v41c-2.97-0.99-5.94-1.98-9-3-36-13.7-36-13.7-72.9-10.8-4.52 2.78-7.37 5.72-9.06 10.8-0.534 5.96-0.572 11 3 16 5.8 6.09 13 10.5 20 15 1.31 0.843 2.61 1.69 3.92 2.53 0.685 0.443 1.37 0.885 2.08 1.34 0.703 0.455 1.41 0.909 2.13 1.38 0.714 0.461 1.43 0.922 2.16 1.4 57.2 37 57.2 37 63.8 67.1 0.988 5.19 1.24 10.2 1.2 15.5-0.00737 1.37-0.00737 1.37-0.0149 2.77-0.34 19.8-7.97 39.1-21.7 53.5-21.2 19.7-47.7 24.5-75.8 23.7-22.7-1.25-45.2-7.06-67.2-12.3-0.736-0.176-1.47-0.352-2.23-0.533-2.87-0.693-5.67-1.42-8.47-2.36-0.14-15.4 0.193-30.7 1-46 3.41 1.27 6.56 2.82 9.76 4.56 20.9 11.2 50.7 22.6 74.7 16.3 6.28-2.27 13.1-5.95 16.5-11.9 0.969-6.1 1.41-13-2.19-18.2-7.6-8.35-17.8-14.5-27.1-20.7-63-41.5-63-41.5-69.5-70.6-3.1-19-0.785-39.2 9.72-55.6 13-17.9 31-28.4 52.8-32.1 32.3-4.38 71.3 0.906 102 11.2z"/>
<path transform="translate(1395,561)" d="m0 0v349h-80v-337c74-12 74-12 80-12z"/>
<path transform="translate(590,661)" d="m0 0v249h-81v-238c12.4-2.25 12.4-2.25 18.4-3.05 0.65-0.0881 1.3-0.176 1.97-0.267 2.1-0.284 4.2-0.564 6.3-0.844 1.48-0.199 2.96-0.398 4.44-0.597 3.08-0.413 6.15-0.825 9.23-1.24 3.94-0.526 7.88-1.06 11.8-1.59 3.04-0.41 6.09-0.818 9.13-1.22 1.45-0.195 2.91-0.39 4.36-0.586 2.02-0.272 4.05-0.542 6.07-0.811 1.73-0.231 1.73-0.231 3.49-0.466 2.83-0.328 2.83-0.328 5.83-0.328z"/>
<path transform="translate(548 579)" d="m0 0c1.24-0.0161 2.48-0.0322 3.76-0.0488 13.4-0.00703 25.5 2.41 35.7 11.5 7.61 8.32 7.96 18.6 7.57 29.3-0.586 8.95-3.59 16.6-10.4 22.5-14.2 11-33.3 10.3-50.4 8.8-9.64-1.24-19.2-4.87-26.1-12-7.89-10.6-7.81-23.3-6.16-35.9 1.87-7.81 6.77-13.5 13.5-17.8 10.8-5.68 20.4-6.52 32.4-6.49z"/>
</svg>
